<svg viewBox="0 0 92 50" fill="none" xmlns="http://www.w3.org/2000/svg">
<path d="M32.5625 28.7344V30H25.3281V18.7969H26.7656V28.7344H32.5625ZM35.2891 29.5234H35.2812C34.4844 29.0781 33.8828 28.4219 33.4688 27.5547C33.0547 26.6875 32.8516 25.6328 32.8516 24.3984C32.8516 23.2578 33.0547 22.25 33.4688 21.375C33.8828 20.5 34.4922 19.8203 35.2891 19.3359C36.0859 18.8516 37.0469 18.6094 38.1641 18.6094C39.2656 18.6094 40.2188 18.8516 41.0156 19.3438C41.8125 19.8359 42.4219 20.5156 42.8359 21.3906C43.25 22.2656 43.4609 23.2656 43.4609 24.3984C43.4609 25.5469 43.2578 26.5547 42.8438 27.4297C42.4297 28.3047 41.8281 28.9844 41.0312 29.4688C40.2344 29.9531 39.2812 30.1953 38.1719 30.1953C37.0469 30.1953 36.0859 29.9688 35.2891 29.5234ZM39.8359 28.6406C40.2969 28.4375 40.6719 28.125 40.9609 27.7031C41.25 27.2969 41.4688 26.8203 41.6172 26.2812C41.7656 25.7422 41.8359 25.1172 41.8359 24.4062C41.8359 23.6953 41.7656 23.0703 41.6172 22.5391C41.4688 22.0078 41.25 21.5312 40.9609 21.1172C40.3828 20.2812 39.4688 19.8594 38.2266 19.8594C37.5469 19.8594 36.9609 19.9688 36.4688 20.1953C35.9766 20.4219 35.5938 20.7031 35.3203 21.0469C35.0469 21.4062 34.8359 21.875 34.6875 22.4531C34.5391 23.0312 34.4688 23.6797 34.4688 24.3984C34.4688 25.1406 34.5469 25.7969 34.6953 26.375C34.8438 26.9531 35.0312 27.3906 35.2578 27.6953C35.5781 28.0938 35.9844 28.3984 36.4766 28.6172C36.9688 28.8359 37.5234 28.9453 38.1484 28.9453C38.8125 28.9453 39.375 28.8438 39.8359 28.6406ZM55.0078 24.0625V30.0156H53.8203L53.6875 28.4766C53.3047 29.0469 52.8125 29.4766 52.2031 29.7734C51.5938 30.0703 50.8984 30.2188 50.1094 30.2188C48.9844 30.2188 48.0234 29.9922 47.2266 29.5469C46.4297 29.1016 45.8281 28.4453 45.4141 27.5781C45 26.7109 44.7969 25.6562 44.7969 24.4219C44.7969 23.2812 45 22.2734 45.4141 21.3984C45.8281 20.5234 46.4375 19.8438 47.2344 19.3594C48.0312 18.875 48.9922 18.6328 50.1094 18.6328C50.8828 18.6328 51.5938 18.7656 52.2422 19.0312C52.8906 19.2969 53.4453 19.6875 53.9062 20.2109C54.3672 20.7344 54.6953 21.375 54.8984 22.1328L53.3359 22.4375C53.2031 21.9688 53 21.5391 52.7188 21.1562C52.4375 20.7734 52.0781 20.4609 51.6406 20.2266C51.2031 19.9922 50.7031 19.875 50.1328 19.875C49.4844 19.875 48.9141 19.9766 48.4219 20.1875C47.9297 20.3984 47.5312 20.7109 47.2266 21.125C46.6875 21.8984 46.4141 22.9922 46.4141 24.4062C46.4141 25.8359 46.6875 26.9453 47.2266 27.7344C47.5234 28.1562 47.9219 28.4609 48.4219 28.6562C48.9219 28.8516 49.5391 28.9453 50.2656 28.9453C51.3359 28.9453 52.1484 28.6484 52.7031 28.0547C53.2578 27.4609 53.5469 26.5859 53.5625 25.4219H50.2344V24.0625H55.0078ZM58.9609 29.5234H58.9531C58.1562 29.0781 57.5547 28.4219 57.1406 27.5547C56.7266 26.6875 56.5234 25.6328 56.5234 24.3984C56.5234 23.2578 56.7266 22.25 57.1406 21.375C57.5547 20.5 58.1641 19.8203 58.9609 19.3359C59.7578 18.8516 60.7188 18.6094 61.8359 18.6094C62.9375 18.6094 63.8906 18.8516 64.6875 19.3438C65.4844 19.8359 66.0938 20.5156 66.5078 21.3906C66.9219 22.2656 67.1328 23.2656 67.1328 24.3984C67.1328 25.5469 66.9297 26.5547 66.5156 27.4297C66.1016 28.3047 65.5 28.9844 64.7031 29.4688C63.9062 29.9531 62.9531 30.1953 61.8438 30.1953C60.7188 30.1953 59.7578 29.9688 58.9609 29.5234ZM63.5078 28.6406C63.9688 28.4375 64.3438 28.125 64.6328 27.7031C64.9219 27.2969 65.1406 26.8203 65.2891 26.2812C65.4375 25.7422 65.5078 25.1172 65.5078 24.4062C65.5078 23.6953 65.4375 23.0703 65.2891 22.5391C65.1406 22.0078 64.9219 21.5312 64.6328 21.1172C64.0547 20.2812 63.1406 19.8594 61.8984 19.8594C61.2188 19.8594 60.6328 19.9688 60.1406 20.1953C59.6484 20.4219 59.2656 20.7031 58.9922 21.0469C58.7188 21.4062 58.5078 21.875 58.3594 22.4531C58.2109 23.0312 58.1406 23.6797 58.1406 24.3984C58.1406 25.1406 58.2188 25.7969 58.3672 26.375C58.5156 26.9531 58.7031 27.3906 58.9297 27.6953C59.25 28.0938 59.6562 28.3984 60.1484 28.6172C60.6406 28.8359 61.1953 28.9453 61.8203 28.9453C62.4844 28.9453 63.0469 28.8438 63.5078 28.6406Z" fill="black"/>
<rect x="0.5" y="0.5" width="91" height="49" rx="3.5" stroke="black"/>
</svg>
