<svg viewBox="0 0 17 14" fill="none" xmlns="http://www.w3.org/2000/svg">
<path d="M16.7148 7.25C16.7148 7.88281 16.2227 8.375 15.625 8.375H4.83203L8.52344 12.1016C8.98047 12.5234 8.98047 13.2617 8.52344 13.6836C8.3125 13.8945 8.03125 14 7.75 14C7.43359 14 7.15234 13.8945 6.94141 13.6836L1.31641 8.05859C0.859375 7.63672 0.859375 6.89844 1.31641 6.47656L6.94141 0.851562C7.36328 0.394531 8.10156 0.394531 8.52344 0.851562C8.98047 1.27344 8.98047 2.01172 8.52344 2.43359L4.83203 6.125H15.625C16.2227 6.125 16.7148 6.65234 16.7148 7.25Z" fill="currentColor"/>
</svg>
