<svg viewBox="0 0 14 17" fill="none" xmlns="http://www.w3.org/2000/svg">
<path d="M10.4414 5.22656L7.875 7.79297V1.5C7.875 0.902344 7.34766 0.375 6.75 0.375C6.11719 0.375 5.625 0.902344 5.625 1.5V7.79297L3.02344 5.22656C2.8125 5.01562 2.53125 4.875 2.25 4.875C1.93359 4.875 1.65234 5.01562 1.44141 5.22656C0.984375 5.64844 0.984375 6.38672 1.44141 6.80859L5.94141 11.3086C6.36328 11.7656 7.10156 11.7656 7.52344 11.3086L12.0234 6.80859C12.4805 6.38672 12.4805 5.64844 12.0234 5.22656C11.6016 4.76953 10.8633 4.76953 10.4414 5.22656ZM12.375 13.875H1.125C0.492188 13.875 0 14.4023 0 15C0 15.6328 0.492188 16.125 1.125 16.125H12.375C12.9727 16.125 13.5 15.6328 13.5 15C13.5 14.4023 12.9727 13.875 12.375 13.875Z" fill="currentColor"/>
</svg>
