<svg viewBox="0 0 19 14" fill="none" xmlns="http://www.w3.org/2000/svg">
    <path d="M9.5 10.625C8.90234 10.625 8.30469 10.4492 7.8125 10.0625L0.5 4.36719V12.3125C0.5 13.2617 1.23828 14 2.1875 14H16.8125C17.7266 14 18.5 13.2617 18.5 12.3125V4.36719L11.1523 10.0625C10.6602 10.4492 10.0625 10.625 9.5 10.625ZM1.0625 3.38281L8.51562 9.18359C9.07812 9.60547 9.88672 9.60547 10.4492 9.18359L17.9023 3.38281C18.2539 3.10156 18.5 2.64453 18.5 2.1875C18.5 1.27344 17.7266 0.5 16.8125 0.5H2.1875C1.23828 0.5 0.5 1.27344 0.5 2.1875C0.5 2.64453 0.710938 3.10156 1.0625 3.38281Z" fill="currentColor"/>
</svg>
